<svg id="Layer_2" data-name="Layer 2" xmlns="http://www.w3.org/2000/svg" viewBox="0 0 231.2 339.72"><defs><style>.cls-1{fill:none;}.cls-2{fill:#231f20;}.cls-3{fill:#5a4a42;}.cls-4{fill:#faaf40;}.cls-5{fill:#f6921e;}.cls-6{fill:#fff;}.cls-7{fill:#f26f23;}.cls-8{fill:#fa2933;}</style></defs><path class="cls-1" d="M243.14,259.22c-.1-1.47-.19-2.94-.27-4.4" transform="translate(-220.09 -40.02)"/><path class="cls-1" d="M321.57,286.84" transform="translate(-220.09 -40.02)"/><path class="cls-2" d="M451.29,181.18c-.68-.46-11.52-7.86-12.45-13.9-1-6.24,1,7.2-1,16.32s-10.08,29.28-10.08,35.52a44,44,0,0,1-.89,6.7s0,0,0,.05c-.35,1.52-.62,2.88-.81,4,0,0,0,.07,0,.1-1.61,7.67-4,17.38-5.75,24.09-.68,2.68-1.26,4.89-1.64,6.3l-.54,2-3.51,13.48,2.52-17.75c.06-.49.13-1,.19-1.45s.13-1,.2-1.48l.12-.91c.19-1.42.39-2.88.58-4.36l.27-2.05.36-2.74c0-.18.05-.35.07-.53.14-1.09.29-2.18.43-3.26.06-.5.13-1,.19-1.49s.16-1.17.23-1.74c1.07-8.23,2-15.76,2.45-20a13.24,13.24,0,0,1,4.78,1.18l-.95-7.63c0,.15-.37.53-3.4.35.64-9.07,2.92-34.6-2.55-44.28-4.67-8.26-15.78-6.58-29.13-7.62-12.63-3.66-27.65-8.56-44.37,1.33a31.92,31.92,0,0,1-10.33,4.05s-6,1.94-17.45-4.48c-22-13-41.12-.39-55.68,1.27l-.93.09c-.66,0-1.31.08-2,.08-7.14,0-11,23.84-13,48.66-7.23,1-7.84.31-7.88.11l-.95,7.63s4.81-2.35,8.28-.44c-1.69,24.48-1.8,47.72-1.8,47.72s-.56-2.94-1.3-7.13c-.23-1.3-.49-2.72-.75-4.21h0c-.51-2.9-1.05-6.07-1.54-9.12l0-.18a122.43,122.43,0,0,1-1.66-13.43c0-2.31-1.18-7.4-2.71-13.22-2.47-9.41-5.82-20.73-6.41-25.18-1-7.2-14.4-30.24-5.76-53.28,4.78-12.76.3-21.54-4.67-26.84,4.35,3,9,5.73,9.95,4.28C232,115,232,87.6,249.24,72.24s26.4-20.16,26.4-20.16-4.32,8.16-4.32,12,4.32-5.28,14.88-10.56,30.72-20.16,64.32-10.08c33,9.9,58.62-.58,59.5-.95-.65.56-21.82,18.24-36.94,18.71a114.84,114.84,0,0,0-25.44,3.36s42.24-1,47.52-3.36,37,11,42.72,62.4C443.43,173.09,450.76,180.69,451.29,181.18Z" transform="translate(-220.09 -40.02)"/><path class="cls-1" d="M426.9,225.87c-.24,1.26-.51,2.61-.81,4C426.28,228.75,426.55,227.39,426.9,225.87Z" transform="translate(-220.09 -40.02)"/><path class="cls-3" d="M426.07,211.69c0,.15-.37.53-3.4.35-1.09-.07-2.55-.21-4.48-.46-2.94-.39-7-1.05-12.53-2.11q-3.3-.61-6-1.08c-16-2.67-19.13-1.26-25.16-.83-19.1,1.36-27.13,9.59-30,13.82a13.34,13.34,0,0,0-1.41,2.5c-8.83-4.73-20.58-.44-20.58-.44a13.34,13.34,0,0,0-1.41-2.5c-2.9-4.22-10.93-12.45-30-13.82-6-.43-9.16-1.83-25.16.84q-2.74.45-6,1.08c-5.54,1.06-9.59,1.71-12.53,2.1-7.23,1-7.84.31-7.88.11l-.95,7.63s4.81-2.35,8.28-.44c1.84,1,3.31,3.23,3.48,7.64.48,12.72-.51,23.73,5.52,32.64,5.52,8.16,24.48,20.64,46.08,11.28s22.8-43,22.8-43,8.55-4.86,16.26.43c0,0,1.2,33.61,22.8,43s40.56-3.12,46.08-11.29c6-8.9,5-19.92,5.52-32.64.17-4.41,1.64-6.62,3.48-7.63a6.58,6.58,0,0,1,3.5-.74,13.24,13.24,0,0,1,4.78,1.18ZM316.44,243.84c-.48,3.12-11.76,34.56-43.2,22.32-19.88-7.74-20-24.79-17.47-36A23,23,0,0,1,276,212.34a68,68,0,0,1,16.18.67c1.54.23,3.15.5,4.83.83C326.28,219.6,316.92,240.72,316.44,243.84Zm75.78,22.75c-31.44,12.24-42.72-19.2-43.2-22.32s-9.84-24.24,19.44-30c1.68-.32,3.29-.6,4.83-.82a68.06,68.06,0,0,1,16.18-.68,23,23,0,0,1,20.22,17.81C412.21,241.81,412.1,258.85,392.22,266.59Z" transform="translate(-220.09 -40.02)"/><path class="cls-2" d="M325.7,215a6.15,6.15,0,0,1-.68,2.8,6.08,6.08,0,0,1-4,3.14c-2.9-4.22-10.93-12.45-30-13.82-6-.43-9.16-1.83-25.16.84,19.1-13.88,45.21-3.9,56.44,1.57A6.07,6.07,0,0,1,325.7,215Z" transform="translate(-220.09 -40.02)"/><path class="cls-4" d="M297,213.84c-1.68-.33-3.29-.6-4.83-.83a68,68,0,0,0-16.18-.67,23,23,0,0,0-20.22,17.81c-2.52,11.22-2.41,28.27,17.47,36,31.44,12.24,42.72-19.2,43.2-22.32S326.28,219.6,297,213.84ZM290.34,240c-13.14.36-23.22-8.46-23.22-8.46s1.26-.59,3.24-1.42a78.7,78.7,0,0,1,15-4.89h0a18.6,18.6,0,0,1,4-.35,31.23,31.23,0,0,1,6.73,1.22c.94.26,1.89.55,2.83.86a112.76,112.76,0,0,1,13.3,5.48A39.2,39.2,0,0,1,290.34,240Z" transform="translate(-220.09 -40.02)"/><path class="cls-5" d="M312.3,232.44a39.2,39.2,0,0,1-22,7.56c-13.14.36-23.22-8.46-23.22-8.46s1.26-.59,3.24-1.42c2.81,1.75,9.25,5.48,14.78,6.79h0a13.06,13.06,0,0,0,4.83.38c2-.3,4.25-.75,6.37-1.25,5.49-1.29,10.37-2.89,10.37-2.89S308,233,299,227A112.76,112.76,0,0,1,312.3,232.44Z" transform="translate(-220.09 -40.02)"/><path class="cls-2" d="M296.17,226.1a31.23,31.23,0,0,0-6.73-1.22,18.6,18.6,0,0,0-4,.35h0a7.74,7.74,0,0,0-.25,11.68h0a13.06,13.06,0,0,0,4.83.38c2-.3,4.25-.75,6.37-1.25a7.71,7.71,0,0,0-.18-10Zm-5.47,7.78a3.06,3.06,0,1,1,3.06-3.06A3.06,3.06,0,0,1,290.7,233.88Z" transform="translate(-220.09 -40.02)"/><path class="cls-6" d="M282.6,231.18a7.73,7.73,0,0,0,2.54,5.73c-5.53-1.31-12-5-14.78-6.79a78.7,78.7,0,0,1,15-4.89A7.71,7.71,0,0,0,282.6,231.18Z" transform="translate(-220.09 -40.02)"/><circle class="cls-6" cx="70.61" cy="190.8" r="3.06"/><path class="cls-6" d="M306.72,233.16s-4.88,1.6-10.37,2.89a7.71,7.71,0,0,0-.18-10c.94.26,1.89.55,2.83.86C308,233,306.72,233.16,306.72,233.16Z" transform="translate(-220.09 -40.02)"/><path class="cls-6" d="M369.29,226.53c-.94.26-1.89.55-2.83.86-9,6.06-7.72,6.2-7.72,6.2s4.88,1.61,10.37,2.89a7.71,7.71,0,0,1,.18-9.95Zm25.81,4a78.69,78.69,0,0,0-15-4.9,7.74,7.74,0,0,1,.25,11.68C385.85,236,392.29,232.31,395.1,230.56Zm-20.34-2.36a3.06,3.06,0,1,0,3.06,3.06A3.06,3.06,0,0,0,374.76,228.2Zm51.33,1.71c.3-1.43.57-2.78.81-4C426.55,227.39,426.28,228.75,426.09,229.91Zm-56.8-3.38c-.94.26-1.89.55-2.83.86-9,6.06-7.72,6.2-7.72,6.2s4.88,1.61,10.37,2.89a7.71,7.71,0,0,1,.18-9.95Zm25.81,4a78.69,78.69,0,0,0-15-4.9,7.74,7.74,0,0,1,.25,11.68C385.85,236,392.29,232.31,395.1,230.56Zm-20.34-2.36a3.06,3.06,0,1,0,3.06,3.06A3.06,3.06,0,0,0,374.76,228.2Zm-5.47-1.67c-.94.26-1.89.55-2.83.86-9,6.06-7.72,6.2-7.72,6.2s4.88,1.61,10.37,2.89a7.71,7.71,0,0,1,.18-9.95Zm25.81,4a78.69,78.69,0,0,0-15-4.9,7.74,7.74,0,0,1,.25,11.68C385.85,236,392.29,232.31,395.1,230.56Zm-20.34-2.36a3.06,3.06,0,1,0,3.06,3.06A3.06,3.06,0,0,0,374.76,228.2Z" transform="translate(-220.09 -40.02)"/><path class="cls-4" d="M422.67,212c-1.09-.07-2.55-.21-4.48-.46-2.94-.39-7-1.05-12.53-2.11q-3.3-.61-6-1.08c-19.1-13.88-45.21-3.89-56.44,1.57a6.11,6.11,0,0,0,1.25,11.42,13.34,13.34,0,0,0-1.41,2.5c-8.83-4.73-20.58-.44-20.58-.44a13.34,13.34,0,0,0-1.41-2.5,6.08,6.08,0,0,0,4-3.14,6.15,6.15,0,0,0,.68-2.8,6.07,6.07,0,0,0-3.42-5.47c-11.23-5.47-37.34-15.45-56.44-1.57q-2.74.45-6,1.08c-5.54,1.06-9.59,1.71-12.53,2.1,2-24.82,5.87-48.66,13-48.66.64,0,1.29,0,2-.08l.93-.09c14.53-1.59,33.35-13.78,55.68-1.27,11.46,6.42,17.45,4.48,17.45,4.48a31.92,31.92,0,0,0,10.33-4.05c16.72-9.89,31.74-5,44.37-1.33,13.35,1,24.46-.64,29.13,7.62C425.59,177.44,423.31,203,422.67,212Z" transform="translate(-220.09 -40.02)"/><path class="cls-6" d="M367.38,231.62a7.68,7.68,0,0,0,1.73,4.86c-5.49-1.28-10.37-2.89-10.37-2.89s-1.31-.14,7.72-6.2c.94-.31,1.89-.6,2.83-.86A7.68,7.68,0,0,0,367.38,231.62Z" transform="translate(-220.09 -40.02)"/><circle class="cls-1" cx="154.67" cy="191.24" r="3.06"/><path class="cls-1" d="M380.32,237.34a7.74,7.74,0,0,0-.25-11.68,78.69,78.69,0,0,1,15,4.9C392.29,232.31,385.85,236,380.32,237.34Z" transform="translate(-220.09 -40.02)"/><path class="cls-6" d="M367.38,231.62a7.68,7.68,0,0,0,1.73,4.86c-5.49-1.28-10.37-2.89-10.37-2.89s-1.31-.14,7.72-6.2c.94-.31,1.89-.6,2.83-.86A7.68,7.68,0,0,0,367.38,231.62Z" transform="translate(-220.09 -40.02)"/><circle class="cls-1" cx="154.67" cy="191.24" r="3.06"/><path class="cls-1" d="M380.32,237.34a7.74,7.74,0,0,0-.25-11.68,78.69,78.69,0,0,1,15,4.9C392.29,232.31,385.85,236,380.32,237.34Z" transform="translate(-220.09 -40.02)"/><circle class="cls-1" cx="154.67" cy="191.24" r="3.06"/><circle class="cls-1" cx="154.67" cy="191.24" r="3.06"/><path class="cls-2" d="M399.62,208.39c-16-2.67-19.13-1.26-25.16-.83-19.1,1.36-27.13,9.59-30,13.82A6.11,6.11,0,0,1,343.18,210C354.41,204.5,380.52,194.51,399.62,208.39Z" transform="translate(-220.09 -40.02)"/><path class="cls-4" d="M434.91,212.14c-2.34.37-4.47,3.05-6.38,7.15-.62,2.34-1.17,4.56-1.62,6.53,0,0,0,0,0,.05-.24,1.26-.51,2.61-.81,4,0,0,0,.07,0,.1a17.25,17.25,0,0,0-.25,2.5A122.54,122.54,0,0,1,424.16,246a6.21,6.21,0,0,1,1.93-1.23c4.86-1.8,5.76,2.7,4.5,7.38-.3,1.13-.5,1.93-.7,2.55-.6,2-1.15,2.06-4.7,4.66l-.39.27h0l-3,.4c0-.16,0-.34,0-.52-.74,4.19-1.3,7.13-1.3,7.13s0-4.86-.22-12.49c-.68,2.68-1.26,4.89-1.64,6.3l-.54,2-3.51,13.48,2.52-17.75c.06-.49.13-1,.19-1.45s.13-1,.2-1.48l.12-.91c.19-1.42.39-2.88.58-4.36l.27-2.05.36-2.74c0-.18.05-.35.07-.53.14-1.09.29-2.18.43-3.26.06-.5.13-1,.19-1.49s.16-1.17.23-1.74c1.07-8.23,2-15.76,2.45-20a6.58,6.58,0,0,0-3.5.74c-1.84,1-3.31,3.22-3.48,7.63-.48,12.72.51,23.74-5.52,32.64-5.52,8.17-24.48,20.64-46.08,11.29s-22.8-43-22.8-43c-7.71-5.29-16.26-.43-16.26-.43s-1.2,33.6-22.8,43-40.56-3.12-46.08-11.28c-6-8.91-5-19.92-5.52-32.64-.17-4.41-1.64-6.63-3.48-7.64-1.69,24.48-1.8,47.72-1.8,47.72s-.56-2.94-1.3-7.13l0,.52-3-.41h0l-.9-.6c-3.55-2.59-4.1-2.7-4.7-4.65-.2-.62-.4-1.42-.7-2.55-1.26-4.68-.36-9.18,4.5-7.38a5.72,5.72,0,0,1,1.36.75,7.16,7.16,0,0,1,1.08.8,122.43,122.43,0,0,1-1.66-13.43c0-2.31-1.18-7.4-2.71-13.22-1.91-4.11-4-6.78-6.38-7.15-12.6-2-7.56,20.34-5.94,29.16a51.93,51.93,0,0,0,2.4,8.63c0-.26-.21-4-.48-8.08l-.06-.81c0-.49-.08-1-.12-1.49,0-.32,0-.64-.08-1l0-.41c-.06-.59-.11-1.17-.16-1.72-2-20.7-.54-17.82.54-18.54.24-.16.72,0,1.32.48,0,0,0,0,0,0,1.89,1,5.94,5.61,7.12,7.49a5.23,5.23,0,0,0-1.46,2.43c-4.37,13.1-3.44,12-6.08,21.89,0,.42,0,.84,0,1.24.87,2.31,1.73,4.43,2.37,6.64.22.7.4,1.41.56,2.14h0c.09.4.16.8.23,1.2,1.08,6.48-6.84,13.32,1.44,20.34a14.34,14.34,0,0,0,13.89,2.78c2,15,4.8,27.92,8.49,34.66,11,20.16,16.8,25.44,38.4,45.12,0,0,16.05,16.95,37.17,15.75s38.4-11.76,42.39-15.31c21.83-19.42,27.36-25,38.4-45.12,3.69-6.74,6.53-19.71,8.49-34.67a14.34,14.34,0,0,0,13.89-2.77c8.28-7,.36-13.86,1.44-20.35.07-.39.14-.8.23-1.2.16-.74.34-1.44.56-2.14.64-2.22,1.5-4.34,2.37-6.65,0-.39,0-.82,0-1.24-2.64-9.91-1.71-8.78-6.08-21.89a5.29,5.29,0,0,0-1.46-2.43c1.4-2.24,6.9-8.33,7.94-7.65s2.52-2.16.54,18.55c-.52,5.39-.8,9.83-.94,13.42.06.22.12.43.17.66a54.31,54.31,0,0,0,2.75-9.58C442.47,232.48,447.51,210.16,434.91,212.14ZM307.08,272.76c4.37-4.14,5.95-7.62,6.52-9.59a1.62,1.62,0,0,1,2.57-.79c1,.79,1.88,2.22,1.71,4.8-.26,3.85-3.53,8.61-5.39,11a1,1,0,0,0,.75,1.55c3.46,0,10.34.22,12.2,1.82,6.48,2.82,14.58.44,14.58.44,1.86-1.6,8.73-1.82,12.2-1.83a1,1,0,0,0,.75-1.54c-1.86-2.42-5.14-7.19-5.39-11-.18-2.59.72-4,1.71-4.8a1.61,1.61,0,0,1,2.57.79c.57,2,2.15,5.45,6.52,9.59a8.82,8.82,0,0,1,3,6.34,6.62,6.62,0,0,1-7.85,6.52,20,20,0,0,0-3-.33c1.49.53,2.5,1.57,2.5,2.77,0,1.73-2.14,3.15-4.77,3.15s-4.77-1.42-4.77-3.15a2.34,2.34,0,0,1,.36-1.22s-13.92,2.94-22.32-.44a2.34,2.34,0,0,1,.36,1.22c0,1.74-2.14,3.15-4.77,3.15s-4.77-1.41-4.77-3.15c0-1.19,1-2.23,2.49-2.77a21.36,21.36,0,0,0-3,.34A6.63,6.63,0,0,1,304,279.1,8.89,8.89,0,0,1,307.08,272.76Zm45.3,52.16c-6,2.71-14.24,3.79-18,4.15-.66,0-1.31.05-2,.05a34.57,34.57,0,0,1-7.58-.82,64,64,0,0,1-11.79-3.82c-7.92-3.6-18.72-12.24-18.72-12.24s9.6,4.32,13.44,4.08c3.1-.19,17.76,2,23.3,2.8a15.77,15.77,0,0,0,3.25.14c5.54-.84,20.21-2.69,23.31-2.5,3.84.24,13.44-4.08,13.44-4.08S360.3,321.32,352.38,324.92Zm3.12-9.36c-5.77-.37-16.38,1.69-21,2.29a12.08,12.08,0,0,1-3.36-.07c-4.57-.95-15.38-3-21.15-2.66-7.44.48-18.72-6.24-18.72-6.24s17.52,1.44,25.44-.24c5.55-1.18,11.31,1,14.48,1.75a12.63,12.63,0,0,0,2.74.17c.68,0,9.34-2.66,14.88-1.48,7.92,1.68,25.44.24,25.44.24S362.94,316,355.5,315.56Zm22-3.84c-2.88-4.68-5.76-3.6-10.08-3.24s-17.46-.18-23-.54a47.72,47.72,0,0,0-10.44.94,5.47,5.47,0,0,1-2.8,0,30.43,30.43,0,0,0-10-1.38c-5.58.36-18.72.9-23,.54s-7.2-1.44-10.08,3.24-9.54,7.56-9.54,7.56,4.5-8.1,4.5-11.52,2.16-9.36,10.62-6.84,13.68-2.88,19.62-3.24,6-2.93,13.32-.54,11.16.88,12.42.44c7.31-2.55,7.38.18,13.32.54s11.16,5.76,19.62,3.24,10.62,3.42,10.62,6.84,4.5,11.52,4.5,11.52S380.34,316.4,377.46,311.72Z" transform="translate(-220.09 -40.02)"/><path class="cls-5" d="M243.65,259.55l-3-.41h0l-.9-.6c-3.55-2.59-4.1-2.7-4.7-4.65-.2-.62-.4-1.42-.7-2.55-1.26-4.68-.36-9.18,4.5-7.38a5.72,5.72,0,0,1,1.36.75,7.16,7.16,0,0,1,1.08.8l0,.18c.49,3.05,1,6.22,1.54,9.12h0c.26,1.49.52,2.91.75,4.21Z" transform="translate(-220.09 -40.02)"/><path class="cls-7" d="M361.41,279.54a6.62,6.62,0,0,1-7.85,6.52,20,20,0,0,0-3-.33,11,11,0,0,0-6.68,1.55s-13.92,2.94-22.32-.44a11,11,0,0,0-6.68-1.55h0a21.36,21.36,0,0,0-3,.34A6.63,6.63,0,0,1,304,279.1a8.89,8.89,0,0,1,3-6.34c4.37-4.14,5.95-7.62,6.52-9.59a1.62,1.62,0,0,1,2.57-.79c1,.79,1.88,2.22,1.71,4.8-.26,3.85-3.53,8.61-5.39,11a1,1,0,0,0,.75,1.55c3.46,0,10.34.22,12.2,1.82,6.48,2.82,14.58.44,14.58.44,1.86-1.6,8.73-1.82,12.2-1.83a1,1,0,0,0,.75-1.54c-1.86-2.42-5.14-7.19-5.39-11-.18-2.59.72-4,1.71-4.8a1.61,1.61,0,0,1,2.57.79c.57,2,2.15,5.45,6.52,9.59A8.82,8.82,0,0,1,361.41,279.54Z" transform="translate(-220.09 -40.02)"/><path class="cls-4" d="M321.93,288.06c0,1.74-2.14,3.15-4.77,3.15s-4.77-1.41-4.77-3.15c0-1.19,1-2.23,2.49-2.77h0a11,11,0,0,1,6.68,1.55A2.34,2.34,0,0,1,321.93,288.06Z" transform="translate(-220.09 -40.02)"/><path class="cls-4" d="M353.07,288.5c0,1.73-2.14,3.15-4.77,3.15s-4.77-1.42-4.77-3.15a2.34,2.34,0,0,1,.36-1.22,11,11,0,0,1,6.68-1.55C352.06,286.26,353.07,287.3,353.07,288.5Z" transform="translate(-220.09 -40.02)"/><path class="cls-5" d="M438.87,236.81c-.52,5.39-.8,9.83-.94,13.42-2.64-9.91-1.71-8.78-6.08-21.89a5.29,5.29,0,0,0-1.46-2.43c1.4-2.24,6.9-8.33,7.94-7.65S440.85,216.1,438.87,236.81Z" transform="translate(-220.09 -40.02)"/><path class="cls-5" d="M430.59,252.1c-.3,1.13-.5,1.93-.7,2.55-.6,2-1.15,2.06-4.7,4.66l-.39.27h0l-3,.4c0-.16,0-.34,0-.52-.74,4.19-1.3,7.13-1.3,7.13s0-4.86-.22-12.49c1.73-6.71,4.14-16.42,5.75-24.09a17.25,17.25,0,0,0-.25,2.5A122.54,122.54,0,0,1,424.16,246a6.21,6.21,0,0,1,1.93-1.23C431,242.92,431.85,247.42,430.59,252.1Z" transform="translate(-220.09 -40.02)"/><path class="cls-2" d="M387,319.28s-6.66-2.88-9.54-7.56-5.76-3.6-10.08-3.24-17.46-.18-23-.54a47.72,47.72,0,0,0-10.44.94,5.47,5.47,0,0,1-2.8,0,30.43,30.43,0,0,0-10-1.38c-5.58.36-18.72.9-23,.54s-7.2-1.44-10.08,3.24-9.54,7.56-9.54,7.56,4.5-8.1,4.5-11.52,2.16-9.36,10.62-6.84,13.68-2.88,19.62-3.24,6-2.93,13.32-.54,11.16.88,12.42.44c7.31-2.55,7.38.18,13.32.54s11.16,5.76,19.62,3.24,10.62,3.42,10.62,6.84S387,319.28,387,319.28Z" transform="translate(-220.09 -40.02)"/><circle class="cls-1" cx="154.67" cy="191.24" r="3.06"/><path class="cls-6" d="M369.29,226.53a7.71,7.71,0,0,0-.18,9.95c-5.49-1.28-10.37-2.89-10.37-2.89s-1.31-.14,7.72-6.2C367.4,227.08,368.35,226.79,369.29,226.53Z" transform="translate(-220.09 -40.02)"/><path class="cls-1" d="M380.32,237.34a7.74,7.74,0,0,0-.25-11.68,78.69,78.69,0,0,1,15,4.9C392.29,232.31,385.85,236,380.32,237.34Z" transform="translate(-220.09 -40.02)"/><path class="cls-4" d="M409.69,230.58a23,23,0,0,0-20.22-17.81,68.06,68.06,0,0,0-16.18.68c-1.54.22-3.15.5-4.83.82-29.28,5.76-19.92,26.88-19.44,30s11.76,34.56,43.2,22.32C412.1,258.85,412.21,241.81,409.69,230.58Zm-34.57,9.86a39.2,39.2,0,0,1-22-7.56,113.81,113.81,0,0,1,13.3-5.49c.94-.31,1.89-.6,2.83-.86a31.17,31.17,0,0,1,6.73-1.21,17.94,17.94,0,0,1,4,.34h0a78.69,78.69,0,0,1,15,4.9c2,.83,3.24,1.41,3.24,1.41S388.26,240.79,375.12,240.44Z" transform="translate(-220.09 -40.02)"/><path class="cls-2" d="M380.07,225.66h0a17.94,17.94,0,0,0-4-.34,31.17,31.17,0,0,0-6.73,1.21,7.71,7.71,0,0,0-.18,9.95c2.12.5,4.32,1,6.37,1.25a12.85,12.85,0,0,0,4.83-.38h0a7.74,7.74,0,0,0-.25-11.68Zm-5.31,8.66a3.06,3.06,0,1,1,3.06-3.06A3.06,3.06,0,0,1,374.76,234.32Z" transform="translate(-220.09 -40.02)"/><circle class="cls-1" cx="154.67" cy="191.24" r="3.06"/><path class="cls-5" d="M398.34,232s-10.08,8.82-23.22,8.47a39.2,39.2,0,0,1-22-7.56,113.81,113.81,0,0,1,13.3-5.49c-9,6.06-7.72,6.2-7.72,6.2s4.88,1.61,10.37,2.89c2.12.5,4.32,1,6.37,1.25a12.85,12.85,0,0,0,4.83-.38h0c5.53-1.31,12-5,14.78-6.78C397.08,231.39,398.34,232,398.34,232Z" transform="translate(-220.09 -40.02)"/><path class="cls-6" d="M369.29,226.53a7.71,7.71,0,0,0-.18,9.95c-5.49-1.28-10.37-2.89-10.37-2.89s-1.31-.14,7.72-6.2C367.4,227.08,368.35,226.79,369.29,226.53Z" transform="translate(-220.09 -40.02)"/><path class="cls-1" d="M380.32,237.34a7.74,7.74,0,0,0-.25-11.68,78.69,78.69,0,0,1,15,4.9C392.29,232.31,385.85,236,380.32,237.34Z" transform="translate(-220.09 -40.02)"/><path class="cls-8" d="M374.22,309.32s-11.28,6.72-18.72,6.24c-5.77-.37-16.38,1.69-21,2.29a12.08,12.08,0,0,1-3.36-.07c-4.57-.95-15.38-3-21.15-2.66-7.44.48-18.72-6.24-18.72-6.24s17.52,1.44,25.44-.24c5.55-1.18,11.31,1,14.48,1.75a12.63,12.63,0,0,0,2.74.17c.68,0,9.34-2.66,14.88-1.48C356.7,310.76,374.22,309.32,374.22,309.32Z" transform="translate(-220.09 -40.02)"/><path class="cls-8" d="M371.1,312.68s-10.8,8.64-18.72,12.24c-6,2.71-14.24,3.79-18,4.15-.66,0-1.31.05-2,.05a34.57,34.57,0,0,1-7.58-.82,64,64,0,0,1-11.79-3.82c-7.92-3.6-18.72-12.24-18.72-12.24s9.6,4.32,13.44,4.08c3.1-.19,17.76,2,23.3,2.8a15.77,15.77,0,0,0,3.25.14c5.54-.84,20.21-2.69,23.31-2.5C361.5,317,371.1,312.68,371.1,312.68Z" transform="translate(-220.09 -40.02)"/><path class="cls-1" d="M308.88,343.68a54.19,54.19,0,0,1,23.58,1.62c12.6,3.78,20.16-2.16,20.16-2.16" transform="translate(-220.09 -40.02)"/><path class="cls-5" d="M233.61,227.91c-4.37,13.1-3.44,12-6.08,21.89,0,.42,0,.84,0,1.24l-.56-1.53h0v0c-.09-2.33-.24-5-.49-8.05l-.06-.81c0-.49-.08-1-.12-1.49,0-.32,0-.64-.08-1l0-.41c-.06-.59-.11-1.17-.16-1.72-2-20.7-.54-17.82.54-18.54.24-.16.72,0,1.32.48,0,0,0,0,0,0,1.89,1,5.94,5.61,7.12,7.49A5.23,5.23,0,0,0,233.61,227.91Z" transform="translate(-220.09 -40.02)"/><path class="cls-4" d="M357.51,277.55a5.6,5.6,0,0,1-6.64,5.51,16.76,16.76,0,0,0-2.53-.27,9.31,9.31,0,0,0-5.66,1.31s-11.78,2.48-18.88-.38a9.45,9.45,0,0,0-5.66-1.31h0a19.78,19.78,0,0,0-2.52.29,5.61,5.61,0,0,1-6.65-5.53,7.53,7.53,0,0,1,2.57-5.36c3.7-3.5,5-6.45,5.52-8.12a1.37,1.37,0,0,1,2.18-.67,4.47,4.47,0,0,1,1.44,4.07c-.22,3.25-3,7.28-4.56,9.33a.81.81,0,0,0,.64,1.31c2.92,0,8.75.19,10.32,1.54,5.48,2.39,12.34.38,12.34.38,1.57-1.36,7.39-1.54,10.32-1.55a.82.82,0,0,0,.64-1.31c-1.58-2-4.35-6.08-4.56-9.33a4.41,4.41,0,0,1,1.44-4.06,1.37,1.37,0,0,1,2.18.67c.48,1.66,1.82,4.61,5.52,8.11A7.46,7.46,0,0,1,357.51,277.55Z" transform="translate(-220.09 -40.02)"/><path class="cls-5" d="M305.64,341.16s17.28-2.16,22.68-1.08,24.84.36,27-.72-11.16,7.2-25.56,6.12S310.32,338.28,305.64,341.16Z" transform="translate(-220.09 -40.02)"/></svg>