<svg id="Layer_1" data-name="Layer 1" xmlns="http://www.w3.org/2000/svg" viewBox="0 0 424 499.69"><defs><style>.cls-1{fill:#fcab10;}.cls-1,.cls-2,.cls-3{stroke:#000;stroke-miterlimit:10;}.cls-2{fill:none;}.cls-3{fill:#2b9eb3;}.cls-4{fill:#f8333c;}.cls-5{fill:#44af69;}.cls-6{font-size:36px;fill:#ff1d25;font-family:DejaVuSansMono-Bold, DejaVu Sans Mono;font-weight:700;}.cls-7{fill:#3fa9f5;}</style></defs><path class="cls-1" d="M736.82,190.5H474.5v247a34,34,0,0,0-34-34c-.58,0-1.15,0-1.72.05-1,0-2,.14-3,.27-.55.08-1.1.17-1.64.27s-1,.19-1.45.31a33.26,33.26,0,0,0-9,3.52c-.27.14-.55.3-.82.47s-.76.47-1.13.72-.82.55-1.22.84a34.59,34.59,0,0,0-4.61,4c-.63.66-1.24,1.35-1.82,2.06-.32.38-.62.77-.91,1.17-.59.79-1.15,1.61-1.67,2.45-.16.26-.32.52-.46.78s-.26.44-.38.66l-.05.08c-.4.73-.77,1.48-1.12,2.24-.23.52-.46,1-.67,1.57s-.36.94-.52,1.42-.32,1-.46,1.44-.28,1-.4,1.47-.23,1-.33,1.49-.18.94-.25,1.41c0,0,0,.07,0,.11l-.06.38a92.67,92.67,0,0,0,92.34,84.8h262.3V272.19a34,34,0,0,0,67.76,4A92.68,92.68,0,0,0,736.82,190.5ZM611.5,261.84a14.77,14.77,0,0,1-7.73,13.07,13.38,13.38,0,0,1-1.27.59S586.13,286,572.17,295.45a4.09,4.09,0,0,1,.61.23,20,20,0,0,1,2.84,1.55L605.5,316.5a11.59,11.59,0,0,1,3.91,4.05,15.51,15.51,0,0,1,2.09,8v8.37a18.36,18.36,0,0,1-3.24,10.66c-7.36,10.34-19.76,3-19.76,3S571,338.86,558.32,330.23c-4-2.68-7.45-5.07-9.82-6.73-10-7-8.34-19.9-8.34-19.9V283.69c.66-13.82,13.55-20.65,13.55-20.65l35.43-23a19.35,19.35,0,0,1,7.48-3c7.72-1.19,11.49,3.16,13.3,7a17.58,17.58,0,0,1,1.58,7.46Zm84.89,24.54v19.91c-.66,13.82-13.55,20.65-13.55,20.65l-35.43,23a19.25,19.25,0,0,1-7.48,3c-7.72,1.19-11.49-3.16-13.3-7a17.62,17.62,0,0,1-1.58-7.47v-10.3a14.75,14.75,0,0,1,7.73-13.06,12.34,12.34,0,0,1,1.27-.6s16.37-10.52,30.33-20a2.74,2.74,0,0,1-.61-.23,20.61,20.61,0,0,1-2.85-1.54l-29.87-19.28a11.59,11.59,0,0,1-3.91-4.05,15.48,15.48,0,0,1-2.09-8V253.1a18.33,18.33,0,0,1,3.24-10.65c7.35-10.35,19.76-3,19.76-3s17.45,11.64,30.17,20.27l.32.49c-.12-.2-.23-.37-.31-.49,3.95,2.68,7.45,5.07,9.82,6.73C698.05,273.48,696.39,286.38,696.39,286.38Z" transform="translate(-406 -105)"/><path class="cls-2" d="M413.23,417.2c-.59.79-1.15,1.61-1.67,2.45A28.6,28.6,0,0,1,413.23,417.2Z" transform="translate(-406 -105)"/><path class="cls-2" d="M416,414c-.63.66-1.24,1.35-1.82,2.06C414.71,415.32,415.32,414.63,416,414Z" transform="translate(-406 -105)"/><path class="cls-2" d="M679.14,261.25l-.46-.78C678.83,260.7,679,261,679.14,261.25Z" transform="translate(-406 -105)"/><path class="cls-2" d="M829.5,283.18V517.5h0V281.59C829.5,282.12,829.5,282.65,829.5,283.18Z" transform="translate(-406 -105)"/><path class="cls-3" d="M474.5,139.5v298a34,34,0,0,0-34-34c-.58,0-1.15,0-1.72.05-1,0-2,.14-3,.27-.55.08-1.1.17-1.64.27s-1,.19-1.45.31a33.26,33.26,0,0,0-9,3.52c-.27.14-.55.3-.82.47s-.76.47-1.13.72-.82.55-1.22.84a34.59,34.59,0,0,0-4.61,4c-.64.66-1.25,1.35-1.82,2.06-.32.38-.62.77-.91,1.17a28.6,28.6,0,0,0-1.67,2.45c-.16.26-.32.52-.46.78a6.24,6.24,0,0,0-.38.66l-.05.08c-.4.73-.77,1.48-1.12,2.24-.23.52-.46,1-.67,1.57s-.36.94-.52,1.42-.32,1-.46,1.44-.28,1-.4,1.47-.23,1-.33,1.49-.18.94-.25,1.41c0,0,0,.07,0,.11s-.09.06-.09,0q-.31-3.7-.31-7.5V140.18c0-18.59,14.63-34.25,33.21-34.67a34,34,0,0,1,34.79,34Z" transform="translate(-406 -105)"/><path class="cls-2" d="M413.23,417.2c-.59.79-1.15,1.61-1.67,2.45A28.6,28.6,0,0,1,413.23,417.2Z" transform="translate(-406 -105)"/><path class="cls-2" d="M416,414c-.63.66-1.24,1.35-1.82,2.06C414.71,415.32,415.32,414.63,416,414Z" transform="translate(-406 -105)"/><path class="cls-3" d="M829.48,281.59v288.6a34,34,0,0,1-68,0v-298a34,34,0,0,0,67.76,4C829.37,278,829.46,279.79,829.48,281.59Z" transform="translate(-406 -105)"/><path class="cls-4" d="M611.5,251.54v10.3a14.77,14.77,0,0,1-7.73,13.07,13.38,13.38,0,0,1-1.27.59S586.13,286,572.17,295.45c-4.3,2.9-8.37,5.7-11.67,8.05a15.45,15.45,0,0,0-6.1,8,15.26,15.26,0,0,0-.52,2.33,21.12,21.12,0,0,0,1.24,9.86l.19.51a32.92,32.92,0,0,0,1.55,3.48c.26.49.5.92.71,1.29l.3.51c.19.31.34.54.45.71-4-2.68-7.45-5.07-9.82-6.73-10-7-8.34-19.9-8.34-19.9V283.69c.66-13.82,13.55-20.65,13.55-20.65l35.43-23a19.35,19.35,0,0,1,7.48-3c7.72-1.19,11.49,3.16,13.3,7A17.58,17.58,0,0,1,611.5,251.54Z" transform="translate(-406 -105)"/><path class="cls-5" d="M611.5,328.51v8.37a18.36,18.36,0,0,1-3.24,10.66c-7.36,10.34-19.76,3-19.76,3S571,338.86,558.32,330.23c-.11-.17-.26-.4-.45-.71l-.3-.51c-.21-.37-.45-.8-.71-1.29a32.92,32.92,0,0,1-1.55-3.48l-.19-.51a21.12,21.12,0,0,1-1.24-9.86,15.26,15.26,0,0,1,.52-2.33,15.45,15.45,0,0,1,6.1-8c3.3-2.35,7.37-5.15,11.67-8.05a4.09,4.09,0,0,1,.61.23,20,20,0,0,1,2.84,1.55L605.5,316.5a11.59,11.59,0,0,1,3.91,4.05A15.51,15.51,0,0,1,611.5,328.51Z" transform="translate(-406 -105)"/><path class="cls-4" d="M696.39,286.38v19.91c-.66,13.82-13.55,20.65-13.55,20.65l-35.43,23a19.25,19.25,0,0,1-7.48,3c-7.72,1.19-11.49-3.16-13.3-7a17.62,17.62,0,0,1-1.58-7.47v-10.3a14.75,14.75,0,0,1,7.73-13.06,12.34,12.34,0,0,1,1.27-.6s16.37-10.52,30.33-20c4.3-2.9,8.37-5.7,11.67-8a15.45,15.45,0,0,0,6.1-8,15.94,15.94,0,0,0,.43-1.75,20,20,0,0,0-.8-9.39c-.16-.54-.34-1.06-.53-1.55h0c-.13-.33-.25-.66-.38-1-.19-.47-.39-.91-.59-1.33h0c-.19-.42-.39-.81-.58-1.17h0c-.18-.36-.36-.69-.53-1h0c-.16-.3-.31-.55-.46-.78l-.13-.22h0c-.12-.2-.23-.37-.31-.49,3.95,2.68,7.45,5.07,9.82,6.73C698.05,273.48,696.39,286.38,696.39,286.38Z" transform="translate(-406 -105)"/><path class="cls-5" d="M682.58,276.69a15.94,15.94,0,0,1-.43,1.75,15.45,15.45,0,0,1-6.1,8c-3.3,2.35-7.37,5.15-11.67,8a2.74,2.74,0,0,1-.61-.23,20.61,20.61,0,0,1-2.85-1.54l-29.87-19.28a11.59,11.59,0,0,1-3.91-4.05,15.48,15.48,0,0,1-2.09-8V253.1a18.33,18.33,0,0,1,3.24-10.65c7.35-10.35,19.76-3,19.76-3s17.45,11.64,30.17,20.27l.32.49h0l.13.22.46.78h0l.53,1h0c.18.36.38.75.58,1.17h0c.19.42.39.86.59,1.33.13.31.25.64.38,1h0c.18.5.36,1,.53,1.55A20,20,0,0,1,682.58,276.69Z" transform="translate(-406 -105)"/><text class="cls-6" transform="translate(168.81 315.3)" style="stroke:#000000;">Code <tspan class="cls-7"><tspan x="-21.67" y="43.2">Leyout</tspan></tspan></text></svg>